<svg width="114" height="34" viewBox="0 0 114 34" fill="none" xmlns="http://www.w3.org/2000/svg">
<path d="M0.68 22.16C0.68 20.2933 0.893334 18.4667 1.32 16.68C1.77333 14.8667 2.4 13.16 3.2 11.56C4 9.93333 4.94667 8.45333 6.04 7.12C7.16 5.76 8.37333 4.58667 9.68 3.6C11.0133 2.61333 12.4267 1.85333 13.92 1.32C15.4133 0.759999 16.9467 0.479999 18.52 0.479999C20.36 0.479999 21.7867 0.866665 22.8 1.64C23.84 2.41333 24.36 3.49333 24.36 4.88C24.36 5.41333 24.28 5.96 24.12 6.52C23.9867 7.08 23.7733 7.64 23.48 8.2C23.2133 8.73333 22.8933 9.25333 22.52 9.76C22.1467 10.2667 21.7333 10.7067 21.28 11.08C20.5867 10.9733 19.9867 10.6667 19.48 10.16C18.9733 9.62667 18.6533 9.01333 18.52 8.32C19.4533 7.54666 20.1867 6.74666 20.72 5.92C21.28 5.06667 21.56 4.29333 21.56 3.6C21.56 2.42666 20.8267 1.84 19.36 1.84C18.7467 1.84 18.1067 1.97333 17.44 2.24C16.8 2.48 16.1467 2.82666 15.48 3.28C14.8133 3.73333 14.16 4.28 13.52 4.92C12.9067 5.56 12.3333 6.26667 11.8 7.04C8.09333 12.3733 6.24 17.8267 6.24 23.4C6.24 25.3733 6.54667 26.96 7.16 28.16C7.77333 29.36 8.58667 30.0667 9.6 30.28C10.7467 30.0133 12.2 29.28 13.96 28.08C15.72 26.88 17.64 25.32 19.72 23.4C19.9867 23.6667 20.1467 23.9467 20.2 24.24C19.4267 25.2533 18.6267 26.2267 17.8 27.16C16.9733 28.0933 16.1467 28.9467 15.32 29.72C14.52 30.4933 13.72 31.1733 12.92 31.76C12.1467 32.3467 11.4267 32.8 10.76 33.12C7.45333 33.0667 4.94667 32.12 3.24 30.28C1.53333 28.44 0.68 25.7333 0.68 22.16ZM27.5453 31.4C26.0253 31.24 24.812 30.5733 23.9053 29.4C22.9986 28.2267 22.5453 26.7333 22.5453 24.92C22.5453 23.8533 22.7053 22.7467 23.0253 21.6C23.3453 20.4533 23.7986 19.3467 24.3853 18.28C24.972 17.1867 25.6653 16.16 26.4653 15.2C27.2653 14.24 28.132 13.4133 29.0653 12.72C30.532 11.6267 31.9053 11.08 33.1853 11.08C34.0386 11.5333 34.8786 12.48 35.7053 13.92C35.8386 13.92 35.9586 13.92 36.0653 13.92C36.172 13.8933 36.292 13.88 36.4253 13.88C37.8386 13.88 38.5453 15.1333 38.5453 17.64C38.5453 19.32 38.2653 20.92 37.7053 22.44C37.172 23.9333 36.412 25.2933 35.4253 26.52C34.4653 27.7467 33.3053 28.7867 31.9453 29.64C30.612 30.4667 29.1453 31.0533 27.5453 31.4ZM29.5853 18.8C29.132 19.4133 28.7053 20.08 28.3053 20.8C27.9053 21.52 27.5586 22.2533 27.2653 23C26.972 23.72 26.7453 24.4267 26.5853 25.12C26.4253 25.7867 26.3453 26.3867 26.3453 26.92C26.3453 27.56 26.452 28.1733 26.6653 28.76C26.8786 29.3467 27.1186 29.68 27.3853 29.76C28.5853 29.4933 29.6786 29 30.6653 28.28C31.6786 27.5333 32.5453 26.6133 33.2653 25.52C34.012 24.4267 34.5853 23.1867 34.9853 21.8C35.412 20.4133 35.6253 18.9333 35.6253 17.36C35.6253 16.6667 35.5853 16.12 35.5053 15.72C35.4253 15.32 35.292 14.9733 35.1053 14.68C33.932 15.0267 32.8786 15.5867 31.9453 16.36C31.0386 17.1333 30.252 17.9467 29.5853 18.8ZM63.6016 17.72C63.1749 17.7467 62.6549 18.0267 62.0416 18.56C61.4282 19.0667 60.7616 19.7333 60.0416 20.56C59.3482 21.36 58.6149 22.2533 57.8416 23.24C57.0949 24.2267 56.3616 25.2133 55.6416 26.2C54.9482 27.16 54.2949 28.0667 53.6816 28.92C53.0682 29.7733 52.5482 30.4533 52.1216 30.96C51.5349 30.72 51.0282 30.3733 50.6016 29.92C50.1749 29.44 49.8682 28.8533 49.6816 28.16C49.8149 27.3333 50.0016 26.48 50.2416 25.6C50.4816 24.6933 50.7882 23.76 51.1616 22.8C51.5616 21.84 52.0416 20.84 52.6016 19.8C53.1882 18.7333 53.8949 17.6133 54.7216 16.44C54.3216 16.4667 53.7749 16.76 53.0816 17.32C52.3882 17.8533 51.6416 18.56 50.8416 19.44C50.0416 20.2933 49.2149 21.2667 48.3616 22.36C47.5082 23.4267 46.7082 24.48 45.9616 25.52C44.9749 26.9067 44.1482 28.12 43.4816 29.16C42.8416 30.2 42.3749 30.8133 42.0816 31C41.3882 30.4933 40.9082 29.9467 40.6416 29.36C40.3749 28.7733 40.1749 28.12 40.0416 27.4C40.0682 26.76 40.1616 25.96 40.3216 25C40.5082 24.04 40.7616 23.0533 41.0816 22.04C41.6949 20.0933 42.4816 18.16 43.4416 16.24C44.4282 14.32 45.3749 12.56 46.2816 10.96C47.0282 11.12 47.6949 11.3733 48.2816 11.72C48.8949 12.0667 49.5349 12.5733 50.2016 13.24C49.9349 14.0667 49.5216 14.9467 48.9616 15.88C48.4016 16.7867 47.8149 17.7467 47.2016 18.76C46.5882 19.7733 46.0282 20.8133 45.5216 21.88C45.0149 22.9467 44.6816 24.0267 44.5216 25.12C45.2682 24.0533 46.1482 22.8267 47.1616 21.44C48.2016 20.0533 49.2549 18.7467 50.3216 17.52C51.4149 16.2933 52.4949 15.2533 53.5616 14.4C54.6282 13.5467 55.5882 13.12 56.4416 13.12C56.7616 13.12 57.1082 13.1733 57.4816 13.28C57.8549 13.3867 58.2016 13.52 58.5216 13.68C58.8416 13.84 59.1082 14 59.3216 14.16C59.5349 14.2933 59.6549 14.4 59.6816 14.48C59.5482 15.0133 59.2282 15.7467 58.7216 16.68C58.2416 17.5867 57.7216 18.5467 57.1616 19.56C56.6016 20.5733 56.0816 21.56 55.6016 22.52C55.1216 23.4533 54.8416 24.2 54.7616 24.76C56.0682 22.9733 57.2949 21.36 58.4416 19.92C59.5882 18.4533 60.6682 17.2 61.6816 16.16C62.6949 15.12 63.6282 14.32 64.4816 13.76C65.3616 13.2 66.1882 12.92 66.9616 12.92C67.4949 12.92 67.9882 13.0667 68.4416 13.36C68.9216 13.6267 69.2549 14.0267 69.4416 14.56C69.2016 15.36 68.8016 16.32 68.2416 17.44C67.7082 18.56 67.1616 19.7467 66.6016 21C66.0416 22.2267 65.5349 23.44 65.0816 24.64C64.6549 25.84 64.4416 26.92 64.4416 27.88C64.4416 28.44 64.5216 28.8133 64.6816 29C64.8416 29.16 65.0682 29.24 65.3616 29.24C65.6816 29.24 65.9749 29.1867 66.2416 29.08C66.5349 28.9467 66.7482 28.88 66.8816 28.88C67.0416 28.9867 67.1349 29.12 67.1616 29.28C67.1882 29.44 67.2016 29.5867 67.2016 29.72C66.6682 30.1467 66.1216 30.4933 65.5616 30.76C65.0016 31.0533 64.3749 31.2 63.6816 31.2C63.0416 31.2 62.5082 31.0933 62.0816 30.88C61.6816 30.6667 61.3482 30.3733 61.0816 30C60.8149 29.6267 60.6282 29.2 60.5216 28.72C60.4149 28.24 60.3616 27.72 60.3616 27.16C60.3616 26.2533 60.4816 25.36 60.7216 24.48C60.9616 23.5733 61.2416 22.72 61.5616 21.92C61.9082 21.0933 62.2682 20.3333 62.6416 19.64C63.0149 18.92 63.3349 18.28 63.6016 17.72ZM71.1075 27.32C71.1075 27.08 71.1208 26.7867 71.1475 26.44C71.2008 26.0667 71.2808 25.5867 71.3875 25C71.4942 24.3867 71.6275 23.6533 71.7875 22.8C71.9742 21.9467 72.2008 20.92 72.4675 19.72C72.5208 19.4533 72.6408 19.0267 72.8275 18.44C73.0142 17.8533 73.2542 17.24 73.5475 16.6C73.8675 15.9333 74.2408 15.2933 74.6675 14.68C75.1208 14.0667 75.6542 13.6133 76.2675 13.32C76.7208 13.4267 77.3208 13.7067 78.0675 14.16C78.8142 14.5867 79.4542 15.1867 79.9875 15.96C79.3742 16.6533 78.8542 17.3467 78.4275 18.04C78.0275 18.7333 77.6542 19.4533 77.3075 20.2C76.9875 20.9467 76.6808 21.72 76.3875 22.52C76.1208 23.32 75.8142 24.16 75.4675 25.04C75.1742 25.7867 74.9075 26.56 74.6675 27.36C74.4275 28.1333 74.2942 28.8133 74.2675 29.4C74.2675 29.88 74.2542 30.2133 74.2275 30.4C74.2275 30.6133 74.1608 30.72 74.0275 30.72C73.9208 30.72 73.7075 30.6533 73.3875 30.52C73.0675 30.3867 72.7342 30.1867 72.3875 29.92C72.0675 29.6267 71.7742 29.2667 71.5075 28.84C71.2408 28.4133 71.1075 27.9067 71.1075 27.32ZM78.7475 9.96C78.7475 9.8 78.7875 9.56 78.8675 9.24C78.7342 9.10666 78.6142 8.90666 78.5075 8.64C78.4275 8.37333 78.3875 8.13333 78.3875 7.92C78.3875 7.68 78.4142 7.36 78.4675 6.96C78.5475 6.53333 78.6408 6.08 78.7475 5.6C78.8542 5.12 78.9875 4.62667 79.1475 4.12C79.3075 3.58666 79.4675 3.10666 79.6275 2.68C79.9475 2.68 80.3342 2.77333 80.7875 2.96C81.2675 3.12 81.7475 3.34667 82.2275 3.64C82.7075 3.90666 83.1475 4.21333 83.5475 4.56C83.9475 4.88 84.2542 5.18667 84.4675 5.48C84.1742 5.77333 83.7875 6.18666 83.3075 6.72C82.8275 7.22667 82.3608 7.77333 81.9075 8.36C81.4542 8.92 81.0408 9.45333 80.6675 9.96C80.2942 10.4667 80.0542 10.8267 79.9475 11.04C79.6275 10.9867 79.3475 10.8533 79.1075 10.64C78.8675 10.4 78.7475 10.1733 78.7475 9.96ZM80.7606 22.96C80.7606 21.44 81.0673 19.9733 81.6806 18.56C82.3206 17.12 83.1473 15.8533 84.1606 14.76C85.2006 13.64 86.374 12.7467 87.6806 12.08C89.014 11.3867 90.3873 11.04 91.8006 11.04C93.1873 11.04 94.254 11.3867 95.0006 12.08C95.7473 12.7733 96.1206 13.76 96.1206 15.04C96.1206 15.6533 96.0273 16.2533 95.8406 16.84C95.6806 17.4 95.454 17.9067 95.1606 18.36C94.894 18.8133 94.574 19.1867 94.2006 19.48C93.8273 19.7467 93.454 19.88 93.0806 19.88C92.7606 19.88 92.4273 19.7867 92.0806 19.6C91.7606 19.3867 91.494 19.12 91.2806 18.8C93.0673 17.1733 93.9606 15.6933 93.9606 14.36C93.9606 13.5867 93.654 13.2 93.0406 13.2C92.5073 13.2 91.8406 13.4533 91.0406 13.96C90.2406 14.4667 89.4673 15.1333 88.7206 15.96C87.574 17.24 86.694 18.6667 86.0806 20.24C85.494 21.7867 85.2006 23.4133 85.2006 25.12C85.2006 27.28 85.6806 28.5733 86.6406 29C87.0406 28.9467 87.5073 28.8267 88.0406 28.64C88.574 28.4533 89.1473 28.2133 89.7606 27.92C90.374 27.6 91.0006 27.24 91.6406 26.84C92.3073 26.44 92.9473 26.0133 93.5606 25.56C93.6673 25.64 93.7606 25.76 93.8406 25.92C93.9206 26.08 93.9606 26.2267 93.9606 26.36C93.5073 26.92 92.9873 27.4667 92.4006 28C91.814 28.5333 91.2006 29.0267 90.5606 29.48C89.9206 29.9067 89.294 30.2667 88.6806 30.56C88.094 30.88 87.574 31.08 87.1206 31.16C86.2406 31.08 85.414 30.8 84.6406 30.32C83.8673 29.8667 83.1873 29.2667 82.6006 28.52C82.0406 27.7733 81.5873 26.92 81.2406 25.96C80.9206 25 80.7606 24 80.7606 22.96ZM102.038 31.4C100.518 31.24 99.3042 30.5733 98.3975 29.4C97.4908 28.2267 97.0375 26.7333 97.0375 24.92C97.0375 23.8533 97.1975 22.7467 97.5175 21.6C97.8375 20.4533 98.2908 19.3467 98.8775 18.28C99.4642 17.1867 100.158 16.16 100.958 15.2C101.758 14.24 102.624 13.4133 103.558 12.72C105.024 11.6267 106.398 11.08 107.678 11.08C108.531 11.5333 109.371 12.48 110.198 13.92C110.331 13.92 110.451 13.92 110.558 13.92C110.664 13.8933 110.784 13.88 110.918 13.88C112.331 13.88 113.038 15.1333 113.038 17.64C113.038 19.32 112.758 20.92 112.198 22.44C111.664 23.9333 110.904 25.2933 109.918 26.52C108.958 27.7467 107.798 28.7867 106.438 29.64C105.104 30.4667 103.638 31.0533 102.038 31.4ZM104.078 18.8C103.624 19.4133 103.198 20.08 102.798 20.8C102.398 21.52 102.051 22.2533 101.758 23C101.464 23.72 101.238 24.4267 101.078 25.12C100.918 25.7867 100.838 26.3867 100.838 26.92C100.838 27.56 100.944 28.1733 101.158 28.76C101.371 29.3467 101.611 29.68 101.878 29.76C103.078 29.4933 104.171 29 105.158 28.28C106.171 27.5333 107.038 26.6133 107.758 25.52C108.504 24.4267 109.078 23.1867 109.478 21.8C109.904 20.4133 110.118 18.9333 110.118 17.36C110.118 16.6667 110.078 16.12 109.998 15.72C109.918 15.32 109.784 14.9733 109.598 14.68C108.424 15.0267 107.371 15.5867 106.438 16.36C105.531 17.1333 104.744 17.9467 104.078 18.8Z" fill="#111111"/>
</svg>
